<mxfile host="app.diagrams.net" modified="2024-02-29T10:07:53.273Z" agent="Mozilla/5.0 (Windows NT 10.0; Win64; x64; rv:123.0) Gecko/20100101 Firefox/123.0" version="22.1.18" etag="qc4S7vzx9Tz-gQ1d-STo" type="github">
  <diagram name="Page-1" id="3XnI_EukI0NET12TYrFC">
    <mxGraphModel>
      <root>
        <mxCell id="0" />
        <mxCell id="1" parent="0" />
      </root>
    </mxGraphModel>
  </diagram>
</mxfile>
